<?xml version="1.0" standalone="no"?>
<!DOCTYPE svg PUBLIC "-//W3C//DTD SVG 20010904//EN"
 "http://www.w3.org/TR/2001/REC-SVG-20010904/DTD/svg10.dtd">
<svg version="1.0" xmlns="http://www.w3.org/2000/svg"
 width="48.000000pt" height="48.000000pt" viewBox="0 0 48.000000 48.000000"
 preserveAspectRatio="xMidYMid meet">
<metadata>
Created by potrace 1.10, written by Peter Selinger 2001-2011
</metadata>
<g transform="translate(0.000000,48.000000) scale(0.100000,-0.100000)"
fill="#000000" stroke="none">
<path d="M85 395 c-24 -23 -25 -29 -25 -155 0 -180 4 -184 205 -178 156 4 155
3 155 180 0 124 -1 130 -25 153 -23 24 -29 25 -155 25 -126 0 -132 -1 -155
-25z m265 -45 c17 -17 20 -33 20 -110 0 -77 -3 -93 -20 -110 -17 -17 -33 -20
-110 -20 -122 0 -130 8 -130 130 0 77 3 93 20 110 17 17 33 20 110 20 77 0 93
-3 110 -20z"/>
<path d="M147 332 c-26 -29 -24 -155 3 -182 28 -28 158 -29 183 -2 25 28 24
163 -1 185 -28 25 -163 24 -185 -1z m143 -42 c43 -43 11 -120 -50 -120 -38 0
-70 32 -70 70 0 17 9 39 20 50 11 11 33 20 50 20 17 0 39 -9 50 -20z"/>
<path d="M207 272 c-22 -24 -21 -45 1 -65 24 -22 45 -21 65 1 22 24 21 45 -1
65 -24 22 -45 21 -65 -1z"/>
</g>
</svg>
